<svg width="361" height="116" viewBox="0 0 361 116" fill="none" xmlns="http://www.w3.org/2000/svg">
<mask id="mask0" mask-type="alpha" maskUnits="userSpaceOnUse" x="0" y="0" width="361" height="116">
<rect x="0.834717" y="0.5" width="360" height="115" fill="white"/>
</mask>
<g mask="url(#mask0)">
<mask id="mask1" mask-type="alpha" maskUnits="userSpaceOnUse" x="0" y="0" width="361" height="116">
<rect x="0.834717" y="0.5" width="360" height="115" fill="#B0BEC5"/>
</mask>
<g mask="url(#mask1)">
<rect x="0.840576" y="0.502686" width="360.154" height="115.62" fill="url(#paint0_linear)"/>
<rect x="0.834717" y="0.5" width="360" height="115" fill="url(#paint1_linear)"/>
<path d="M-3.16543 43.5L-1.16543 0C-1.16543 0 97.3345 10 138.335 29C153.213 35.895 165.721 44.9629 177.986 54.4594C194.944 51.6264 211.604 49.5 228.835 49.5C282.335 49.5 362.335 87 362.335 87V119C362.335 119 301.335 114.5 251.835 99C220.298 89.1249 199.518 71.1317 177.986 54.4594C142.29 60.4227 105.273 69.5169 58.8346 68.5C-9.66543 67 -3.16543 43.5 -3.16543 43.5Z" fill="url(#paint2_linear)" fill-opacity="0.35"/>
<path d="M-13 53L-11 9.49994C-11 9.49994 113.335 7.49995 154.335 26.5C167.09 32.4109 180.135 41.9513 193.547 52.7576C224.608 49.8319 253.831 47 278.335 47C331.835 47 369.335 84 369.335 84L373.835 125.5C373.835 125.5 338.335 133 288.835 117.5C254.734 106.822 223.244 76.6865 193.547 52.7576C156.79 56.2196 117.461 59.8129 80.3346 59C11.8346 57.5 -13 53 -13 53Z" fill="url(#paint3_linear)" fill-opacity="0.35"/>
<path d="M123.835 -11H152.335C152.335 -11 203.335 -6.5 244.335 12.5C264.768 21.9691 278.247 35.0397 292.755 47.6887C305.642 47.7262 319.743 47.5 335.835 47.5C389.335 47.5 403.335 59.5 403.335 59.5L387.835 80.5C387.835 80.5 397.335 96 347.835 80.5C323.004 72.7248 307.358 60.4203 292.755 47.6887C262.798 47.6016 239.405 46.0899 212.835 37C174.835 24 123.835 -11 123.835 -11Z" fill="url(#paint4_linear)" fill-opacity="0.35"/>
</g>
</g>
<defs>
<linearGradient id="paint0_linear" x1="180.918" y1="0.502686" x2="180.918" y2="121.762" gradientUnits="userSpaceOnUse">
<stop stop-color="white"/>
<stop offset="0.666667" stop-color="white" stop-opacity="0.54"/>
<stop offset="1" stop-color="#FAFAFA" stop-opacity="0"/>
</linearGradient>
<linearGradient id="paint1_linear" x1="180.835" y1="0.5" x2="180.835" y2="121.11" gradientUnits="userSpaceOnUse">
<stop stop-color="#B0BEC5"/>
<stop offset="0.265625" stop-color="#B0BEC5" stop-opacity="0.3"/>
<stop offset="1" stop-color="#FAFAFA" stop-opacity="0"/>
</linearGradient>
<linearGradient id="paint2_linear" x1="124.335" y1="6.99998" x2="321.835" y2="126" gradientUnits="userSpaceOnUse">
<stop stop-color="#B0BEC5"/>
<stop offset="1" stop-color="#B0BEC5" stop-opacity="0"/>
</linearGradient>
<linearGradient id="paint3_linear" x1="114.5" y1="16.5" x2="312" y2="135.5" gradientUnits="userSpaceOnUse">
<stop stop-color="#B0BEC5"/>
<stop offset="1" stop-color="#B0BEC5" stop-opacity="0"/>
</linearGradient>
<linearGradient id="paint4_linear" x1="147.335" y1="0.560607" x2="344.835" y2="119.561" gradientUnits="userSpaceOnUse">
<stop stop-color="#B0BEC5"/>
<stop offset="1" stop-color="#B0BEC5" stop-opacity="0"/>
</linearGradient>
</defs>
</svg>
