<svg width="160" height="160" viewBox="0 0 160 160" fill="none" xmlns="http://www.w3.org/2000/svg">
<ellipse cx="81.875" cy="76.875" rx="51.875" ry="48.125" fill="#B0BEC5"/>
<path d="M80 13.3333C43.2 13.3333 13.3334 43.1999 13.3334 79.9999C13.3334 116.8 43.2 146.667 80 146.667C116.8 146.667 146.667 116.8 146.667 79.9999C146.667 43.1999 116.8 13.3333 80 13.3333ZM61.9334 108.6L38 84.6666C35.4 82.0666 35.4 77.8666 38 75.2666C40.6 72.6666 44.8 72.6666 47.4 75.2666L66.6667 94.4666L112.533 48.5999C115.133 45.9999 119.333 45.9999 121.933 48.5999C124.533 51.1999 124.533 55.3999 121.933 57.9999L71.3334 108.6C68.8 111.2 64.5334 111.2 61.9334 108.6Z" fill="black"/>
<path d="M138.8 79.9999C138.8 112.474 112.474 138.8 80 138.8C47.5257 138.8 21.2 112.474 21.2 79.9999C21.2 47.5256 47.5257 21.2 80 21.2C112.474 21.2 138.8 47.5256 138.8 79.9999Z" stroke="#B0BEC5" stroke-width="4"/>
</svg>
