<svg width="45" height="45" viewBox="0 0 45 45" fill="none" xmlns="http://www.w3.org/2000/svg">
<path d="M7.5 7.5H18.75V18.75H7.5V7.5ZM37.5 7.5V18.75H26.25V7.5H37.5ZM26.25 28.125H30V24.375H26.25V20.625H30V24.375H33.75V20.625H37.5V24.375H33.75V28.125H37.5V33.75H33.75V37.5H30V33.75H24.375V37.5H20.625V30H26.25V28.125ZM30 28.125V33.75H33.75V28.125H30ZM7.5 37.5V26.25H18.75V37.5H7.5ZM11.25 11.25V15H15V11.25H11.25ZM30 11.25V15H33.75V11.25H30ZM11.25 30V33.75H15V30H11.25ZM7.5 20.625H11.25V24.375H7.5V20.625ZM16.875 20.625H24.375V28.125H20.625V24.375H16.875V20.625ZM20.625 11.25H24.375V18.75H20.625V11.25ZM3.75 3.75V11.25H0V3.75C0 2.75544 0.395088 1.80161 1.09835 1.09835C1.80161 0.395088 2.75544 0 3.75 0L11.25 0V3.75H3.75ZM41.25 0C42.2446 0 43.1984 0.395088 43.9016 1.09835C44.6049 1.80161 45 2.75544 45 3.75V11.25H41.25V3.75H33.75V0H41.25ZM3.75 33.75V41.25H11.25V45H3.75C2.75544 45 1.80161 44.6049 1.09835 43.9016C0.395088 43.1984 0 42.2446 0 41.25V33.75H3.75ZM41.25 41.25V33.75H45V41.25C45 42.2446 44.6049 43.1984 43.9016 43.9016C43.1984 44.6049 42.2446 45 41.25 45H33.75V41.25H41.25Z" fill="white"/>
</svg>
