<svg width="32" height="32" viewBox="0 0 32 32" fill="none" xmlns="http://www.w3.org/2000/svg">
    <circle cx="16.3998" cy="16.3998" r="15.6" fill="#303030"/>
    <path d="M16.3996 18.9601C17.8134 18.9601 18.9596 17.8139 18.9596 16.4001C18.9596 14.9862 17.8134 13.8401 16.3996 13.8401C14.9857 13.8401 13.8396 14.9862 13.8396 16.4001C13.8396 17.8139 14.9857 18.9601 16.3996 18.9601Z" fill="white"/>
    <path d="M13.9996 8.40009L12.5356 10.0001H9.9996C9.1196 10.0001 8.3996 10.7201 8.3996 11.6001V21.2001C8.3996 22.0801 9.1196 22.8001 9.9996 22.8001H22.7996C23.6796 22.8001 24.3996 22.0801 24.3996 21.2001V11.6001C24.3996 10.7201 23.6796 10.0001 22.7996 10.0001H20.2636L18.7996 8.40009H13.9996ZM16.3996 20.4001C14.1916 20.4001 12.3996 18.6081 12.3996 16.4001C12.3996 14.1921 14.1916 12.4001 16.3996 12.4001C18.6076 12.4001 20.3996 14.1921 20.3996 16.4001C20.3996 18.6081 18.6076 20.4001 16.3996 20.4001Z" fill="white"/>
</svg>
