<?xml version="1.0" encoding="UTF-8" standalone="yes"?>
<svg xmlns="http://www.w3.org/2000/svg" viewBox="0 0 32 32" width="32" height="32" fill="#ffffff">
  <path d="M 10 4 L 10 6 C 10 6.257813 9.671875 6.917969 9.1875 7.59375 C 8.945313 7.929688 8.695313 8.25 8.46875 8.625 C 8.242188 9 8 9.417969 8 10 L 8 24.5 C 8 25.273438 8.457031 26.007813 9.125 26.5 C 9.15625 26.671875 9.128906 26.730469 9.25 26.96875 C 9.496094 27.449219 10.171875 28 11 28 L 21 28 C 21.828125 28 22.503906 27.441406 22.75 26.96875 C 22.875 26.734375 22.84375 26.671875 22.875 26.5 C 23.542969 26.007813 24 25.277344 24 24.5 L 24 10 C 24 9.417969 23.789063 9.003906 23.5625 8.625 C 23.335938 8.246094 23.058594 7.90625 22.8125 7.5625 C 22.324219 6.871094 22 6.179688 22 6 L 22 4 Z M 12 6 L 20 6 C 20 7.167969 20.675781 7.996094 21.1875 8.71875 C 21.265625 8.828125 21.304688 8.898438 21.375 9 L 14 9 L 14 11 L 22 11 L 22 23 L 14 23 L 14 25 L 21 25 L 21 26 L 11 26 C 10.996094 25.988281 11 25.96875 11 25.96875 L 11 25 L 12 25 L 12 23 L 10 23 L 10 11 L 12 11 L 12 9 L 10.625 9 C 10.691406 8.90625 10.742188 8.847656 10.8125 8.75 C 11.328125 8.035156 12 7.183594 12 6 Z"/>
</svg>
