<svg width="240" height="240" viewBox="0 0 240 240" fill="none" xmlns="http://www.w3.org/2000/svg">
    <circle cx="120" cy="120" r="120" transform="rotate(-180 120 120)" fill="#00695C"/>
    <circle cx="120" cy="120" r="112.6" transform="rotate(-180 120 120)" stroke="#E2F1F8" stroke-width="2"/>
    <path fill-rule="evenodd" clip-rule="evenodd" d="M120 201.655C151.811 201.655 177.6 178.885 177.6 150.796H177.6L177.6 150.795L173.628 82.571C173.628 57.2924 150.062 36.8 120.993 36.8C91.9238 36.8 68.3586 57.2924 68.3586 82.571L62.4 150.795H62.3999C62.3999 178.884 88.1883 201.655 120 201.655ZM81.0193 104.117C81.0193 84.5726 98.3502 76.0551 120 76.0551C141.649 76.0551 159.419 84.5726 159.419 104.117C159.419 126.089 149.872 125.483 134.604 124.512C131.153 124.293 127.41 124.055 123.419 124.055C119.761 124.055 116.128 124.238 112.616 124.415C95.3489 125.283 81.0193 126.004 81.0193 104.117ZM119.2 187.255C150.4 187.255 161.6 169.119 161.6 153.655C161.6 134.858 149.737 137.556 136.047 140.669C130.509 141.928 124.672 143.255 119.2 143.255C113.721 143.255 108.009 141.991 102.654 140.806C89.4399 137.881 78.4 135.438 78.4 153.655C78.4 169.119 88 187.255 119.2 187.255Z" fill="#E2F1F8"/>
</svg>
